<svg width="153" height="153" viewBox="0 0 153 153" fill="none" xmlns="http://www.w3.org/2000/svg">
<circle cx="76.5" cy="76.5" r="76.5" fill="#FBE8D5"/>
<path d="M115.982 127.218H37.0161C35.8526 127.218 34.7367 126.756 33.9139 125.933C33.0911 125.111 32.6289 123.995 32.6289 122.831V43.8657C32.6289 42.7022 33.0911 41.5863 33.9139 40.7635C34.7367 39.9407 35.8526 39.4785 37.0161 39.4785H115.982C117.146 39.4785 118.261 39.9407 119.084 40.7635C119.907 41.5863 120.369 42.7022 120.369 43.8657V122.832C120.369 123.995 119.907 125.111 119.084 125.933C118.261 126.756 117.145 127.218 115.982 127.218Z" fill="white"/>
<path d="M35.5566 120.539C35.0195 120.539 34.5801 120.1 34.5801 119.562V70.7344C34.5801 70.4754 34.683 70.227 34.8661 70.0438C35.0492 69.8607 35.2976 69.7578 35.5566 69.7578C36.0986 69.7578 36.5332 70.1924 36.5332 70.7344V119.562C36.5332 119.821 36.4303 120.07 36.2472 120.253C36.064 120.436 35.8156 120.539 35.5566 120.539ZM35.5566 67.8047C35.2976 67.8047 35.0492 67.7018 34.8661 67.5187C34.683 67.3355 34.5801 67.0871 34.5801 66.8281C34.5801 66.5691 34.683 66.3207 34.8661 66.1376C35.0492 65.9544 35.2976 65.8516 35.5566 65.8516C36.0986 65.8516 36.5332 66.2861 36.5332 66.8281C36.5332 67.0871 36.4303 67.3355 36.2472 67.5187C36.064 67.7018 35.8156 67.8047 35.5566 67.8047Z" fill="white"/>
<path d="M115.982 39.4785H115.486V117.949C115.486 119.112 115.024 120.228 114.201 121.051C113.378 121.873 112.263 122.335 111.099 122.335H32.6289V122.832C32.629 123.995 33.0913 125.111 33.9141 125.933C34.7368 126.756 35.8526 127.218 37.0161 127.218H115.982C117.145 127.218 118.261 126.756 119.084 125.933C119.907 125.111 120.369 123.995 120.369 122.832V43.8657C120.369 42.7022 119.907 41.5863 119.084 40.7635C118.261 39.9407 117.146 39.4785 115.982 39.4785Z" fill="white"/>
<path d="M117.614 39.793C117.822 40.3119 117.929 40.8658 117.928 41.4248V120.391C117.928 121.554 117.466 122.67 116.643 123.493C115.82 124.315 114.704 124.777 113.541 124.777H34.5752C34.0162 124.778 33.4622 124.672 32.9434 124.463C33.2695 125.277 33.8318 125.974 34.5577 126.465C35.2837 126.956 36.1401 127.219 37.0166 127.219H115.982C117.146 127.219 118.262 126.757 119.084 125.934C119.907 125.111 120.369 123.996 120.37 122.832V43.8662C120.37 42.9897 120.107 42.1333 119.616 41.4074C119.125 40.6814 118.428 40.1191 117.614 39.793Z" fill="#C2C2C2"/>
<path d="M115.982 39.4785H37.0161C35.8526 39.4785 34.7367 39.9407 33.9139 40.7635C33.0911 41.5863 32.6289 42.7022 32.6289 43.8657V60.0732H120.369V43.8657C120.369 43.2896 120.255 42.7191 120.035 42.1868C119.814 41.6546 119.491 41.1709 119.084 40.7635C118.677 40.3561 118.193 40.033 117.661 39.8125C117.129 39.592 116.558 39.4785 115.982 39.4785Z" fill="#5634AE"/>
<path d="M56.7568 53.1772C55.6418 53.1772 54.5725 52.7343 53.7841 51.9459C52.9957 51.1575 52.5527 50.0881 52.5527 48.9731V29.9854C52.5527 28.8704 52.9957 27.801 53.7841 27.0126C54.5725 26.2242 55.6418 25.7812 56.7568 25.7812C57.8718 25.7812 58.9412 26.2242 59.7296 27.0126C60.518 27.801 60.9609 28.8704 60.9609 29.9854V48.9731C60.961 49.5253 60.8523 50.072 60.6411 50.5821C60.4298 51.0922 60.1201 51.5556 59.7297 51.946C59.3393 52.3364 58.8758 52.6461 58.3658 52.8574C57.8557 53.0686 57.3089 53.1773 56.7568 53.1772ZM96.2402 53.1772C95.1252 53.1772 94.0559 52.7343 93.2675 51.9459C92.4791 51.1575 92.0361 50.0881 92.0361 48.9731V29.9854C92.0361 28.8704 92.4791 27.801 93.2675 27.0126C94.0559 26.2242 95.1252 25.7812 96.2402 25.7812C97.3552 25.7812 98.4246 26.2242 99.213 27.0126C100.001 27.801 100.444 28.8704 100.444 29.9854V48.9731C100.444 50.0881 100.001 51.1575 99.213 51.9459C98.4246 52.7343 97.3552 53.1772 96.2402 53.1772ZM113.29 68.1123V79.8457C113.29 79.9825 113.263 80.118 113.211 80.2444C113.158 80.3708 113.082 80.4856 112.985 80.5823C112.888 80.6791 112.773 80.7558 112.647 80.8081C112.52 80.8604 112.385 80.8873 112.248 80.8872H100.515C100.378 80.8872 100.242 80.8603 100.116 80.8079C99.9897 80.7556 99.8749 80.6789 99.7782 80.5822C99.6815 80.4854 99.6048 80.3706 99.5524 80.2443C99.5001 80.1179 99.4731 79.9825 99.4731 79.8457V68.1123C99.4731 67.5371 99.9395 67.0708 100.515 67.0708H112.248C112.824 67.0708 113.29 67.5371 113.29 68.1123ZM93.3682 68.1123V79.8457C93.3682 79.9825 93.3412 80.118 93.2888 80.2444C93.2365 80.3708 93.1597 80.4856 93.0629 80.5823C92.9662 80.6791 92.8513 80.7558 92.7249 80.8081C92.5985 80.8604 92.463 80.8873 92.3262 80.8872H80.5928C80.456 80.8872 80.3206 80.8603 80.1942 80.8079C80.0678 80.7556 79.953 80.6789 79.8563 80.5822C79.7596 80.4854 79.6829 80.3706 79.6306 80.2443C79.5782 80.1179 79.5513 79.9825 79.5513 79.8457V68.1123C79.5513 67.5371 80.0176 67.0708 80.5928 67.0708H92.3262C92.9014 67.0708 93.3682 67.5371 93.3682 68.1123ZM73.4458 68.1123V79.8457C73.4458 79.9825 73.4188 80.118 73.3665 80.2444C73.3141 80.3708 73.2373 80.4856 73.1406 80.5823C73.0438 80.6791 72.9289 80.7558 72.8025 80.8081C72.6761 80.8604 72.5406 80.8873 72.4038 80.8872H60.6704C60.5336 80.8872 60.3982 80.8603 60.2718 80.8079C60.1455 80.7556 60.0307 80.6789 59.934 80.5822C59.8372 80.4854 59.7605 80.3706 59.7082 80.2443C59.6558 80.1179 59.6289 79.9825 59.6289 79.8457V68.1123C59.6289 67.5371 60.0952 67.0708 60.6704 67.0708H72.4038C72.9795 67.0708 73.4458 67.5371 73.4458 68.1123ZM53.5239 68.1123V79.8457C53.5239 79.9825 53.497 80.118 53.4446 80.2444C53.3922 80.3708 53.3155 80.4856 53.2187 80.5823C53.1219 80.6791 53.0071 80.7558 52.8806 80.8081C52.7542 80.8604 52.6187 80.8873 52.4819 80.8872H40.7485C40.6118 80.8872 40.4763 80.8603 40.35 80.8079C40.2236 80.7556 40.1088 80.6789 40.0121 80.5822C39.9154 80.4854 39.8387 80.3706 39.7863 80.2443C39.734 80.1179 39.707 79.9825 39.707 79.8457V68.1123C39.707 67.5371 40.1733 67.0708 40.7485 67.0708H52.4819C53.0571 67.0708 53.5239 67.5371 53.5239 68.1123Z" fill="#EC8F32"/>
<path d="M93.3682 86.7896V98.523C93.3682 98.6598 93.3412 98.7952 93.2888 98.9216C93.2365 99.048 93.1597 99.1629 93.0629 99.2596C92.9662 99.3563 92.8513 99.433 92.7249 99.4853C92.5985 99.5376 92.463 99.5645 92.3262 99.5645H80.5928C80.456 99.5645 80.3206 99.5375 80.1942 99.4852C80.0678 99.4328 79.953 99.3561 79.8563 99.2594C79.7596 99.1627 79.6829 99.0479 79.6306 98.9215C79.5782 98.7952 79.5513 98.6597 79.5513 98.523V86.7896C79.5513 86.2144 80.0176 85.748 80.5928 85.748H92.3262C92.9014 85.748 93.3682 86.2144 93.3682 86.7896ZM73.4458 86.7896V98.523C73.4458 98.6598 73.4188 98.7952 73.3665 98.9216C73.3141 99.048 73.2373 99.1629 73.1406 99.2596C73.0438 99.3563 72.9289 99.433 72.8025 99.4853C72.6761 99.5376 72.5406 99.5645 72.4038 99.5645H60.6704C60.3942 99.5645 60.1293 99.4547 59.934 99.2594C59.7386 99.0641 59.6289 98.7992 59.6289 98.523V86.7896C59.6289 86.2144 60.0952 85.748 60.6704 85.748H72.4038C72.9795 85.748 73.4458 86.2144 73.4458 86.7896ZM53.5239 86.7896V98.523C53.5239 98.6598 53.497 98.7952 53.4446 98.9216C53.3922 99.048 53.3155 99.1629 53.2187 99.2596C53.1219 99.3563 53.0071 99.433 52.8806 99.4853C52.7542 99.5376 52.6187 99.5645 52.4819 99.5645H40.7485C40.4723 99.5645 40.2074 99.4547 40.0121 99.2594C39.8168 99.0641 39.707 98.7992 39.707 98.523V86.7896C39.707 86.2144 40.1733 85.748 40.7485 85.748H52.4819C53.0571 85.748 53.5239 86.2144 53.5239 86.7896ZM93.3682 105.467V117.201C93.3682 117.338 93.3412 117.473 93.2888 117.599C93.2365 117.726 93.1597 117.841 93.0629 117.937C92.9662 118.034 92.8513 118.111 92.7249 118.163C92.5985 118.215 92.463 118.242 92.3262 118.242H80.5928C80.456 118.242 80.3206 118.215 80.1942 118.163C80.0678 118.111 79.953 118.034 79.8563 117.937C79.7596 117.84 79.6829 117.726 79.6306 117.599C79.5782 117.473 79.5513 117.337 79.5513 117.201V105.467C79.5513 104.892 80.0176 104.426 80.5928 104.426H92.3262C92.9014 104.426 93.3682 104.892 93.3682 105.467ZM73.4458 105.467V117.201C73.4458 117.338 73.4188 117.473 73.3665 117.599C73.3141 117.726 73.2373 117.841 73.1406 117.937C73.0438 118.034 72.9289 118.111 72.8025 118.163C72.6761 118.215 72.5406 118.242 72.4038 118.242H60.6704C60.5336 118.242 60.3982 118.215 60.2718 118.163C60.1455 118.111 60.0307 118.034 59.934 117.937C59.8372 117.84 59.7605 117.726 59.7082 117.599C59.6558 117.473 59.6289 117.337 59.6289 117.201V105.467C59.6289 104.892 60.0952 104.426 60.6704 104.426H72.4038C72.9795 104.426 73.4458 104.892 73.4458 105.467ZM53.5239 105.467V117.201C53.5239 117.338 53.497 117.473 53.4446 117.599C53.3922 117.726 53.3155 117.841 53.2187 117.937C53.1219 118.034 53.0071 118.111 52.8806 118.163C52.7542 118.215 52.6187 118.242 52.4819 118.242H40.7485C40.6118 118.242 40.4763 118.215 40.35 118.163C40.2236 118.111 40.1088 118.034 40.0121 117.937C39.9154 117.84 39.8387 117.726 39.7863 117.599C39.734 117.473 39.707 117.337 39.707 117.201V105.467C39.707 104.892 40.1733 104.426 40.7485 104.426H52.4819C53.0571 104.426 53.5239 104.892 53.5239 105.467ZM112.248 85.748H100.515C100.378 85.748 100.242 85.775 100.116 85.8273C99.9897 85.8797 99.8749 85.9564 99.7782 86.0531C99.6815 86.1498 99.6048 86.2646 99.5524 86.391C99.5001 86.5173 99.4731 86.6528 99.4731 86.7896V98.523C99.4731 99.0982 99.9395 99.5645 100.515 99.5645H112.248C112.524 99.5645 112.789 99.4547 112.985 99.2594C113.18 99.0641 113.29 98.7992 113.29 98.523V86.7896C113.29 86.6527 113.263 86.5173 113.211 86.3909C113.158 86.2645 113.082 86.1496 112.985 86.0529C112.888 85.9562 112.773 85.8795 112.647 85.8272C112.52 85.7749 112.385 85.748 112.248 85.748ZM112.248 104.426H100.515C100.378 104.426 100.242 104.453 100.116 104.505C99.9897 104.557 99.8749 104.634 99.7782 104.731C99.6815 104.828 99.6048 104.942 99.5524 105.069C99.5001 105.195 99.4731 105.331 99.4731 105.467V117.201C99.4731 117.776 99.9395 118.243 100.515 118.243H112.248C112.524 118.243 112.789 118.133 112.985 117.937C113.18 117.742 113.29 117.477 113.29 117.201V105.467C113.29 105.33 113.263 105.195 113.211 105.069C113.158 104.942 113.082 104.827 112.985 104.731C112.888 104.634 112.773 104.557 112.647 104.505C112.52 104.453 112.385 104.426 112.248 104.426Z" fill="#C2C2C2"/>
<path d="M32.6289 56.2129H120.369V60.0728H32.6289V56.2129Z" fill="#5634AE"/>
<path d="M76.4995 133.841C89.8425 133.841 100.659 123.024 100.659 109.681C100.659 96.3381 89.8425 85.5215 76.4995 85.5215C63.1565 85.5215 52.3398 96.3381 52.3398 109.681C52.3398 123.024 63.1565 133.841 76.4995 133.841Z" fill="#EC8F32"/>
<path d="M90.9658 90.332C94.0954 94.5053 95.7834 99.5829 95.7754 104.799C95.7754 118.142 84.959 128.959 71.6157 128.959C66.3993 128.967 61.3216 127.279 57.1484 124.149C61.5547 130.034 68.582 133.842 76.4985 133.842C89.8413 133.842 100.658 123.025 100.658 109.682C100.658 101.766 96.8501 94.7388 90.9658 90.332Z" fill="#EC8F32"/>
<path d="M73.9331 120.441C73.3909 120.442 72.8538 120.335 72.3528 120.128C71.8518 119.92 71.3967 119.616 71.0137 119.232L62.8828 111.101C62.125 110.323 61.704 109.278 61.711 108.192C61.7181 107.107 62.1526 106.067 62.9204 105.299C63.6883 104.531 64.7277 104.097 65.8136 104.09C66.8995 104.083 67.9444 104.504 68.7222 105.262L73.9336 110.474L84.2759 100.131C85.0536 99.373 86.0986 98.952 87.1845 98.9591C88.2704 98.9661 89.3098 99.4006 90.0777 100.168C90.8455 100.936 91.28 101.976 91.287 103.062C91.2941 104.148 90.8731 105.192 90.1152 105.97L76.8535 119.232C76.4703 119.616 76.015 119.92 75.5138 120.128C75.0127 120.335 74.4755 120.442 73.9331 120.441Z" fill="white"/>
</svg>
