<svg width="22" height="20" viewBox="0 0 22 20" fill="none" xmlns="http://www.w3.org/2000/svg">
<path d="M7.61379 8.94275H4.84035C4.71305 8.94275 4.59096 8.89217 4.50094 8.80216C4.41092 8.71214 4.36035 8.59005 4.36035 8.46275C4.36035 8.33544 4.41092 8.21335 4.50094 8.12333C4.59096 8.03332 4.71305 7.98275 4.84035 7.98275H7.13379V4.80227C7.13379 4.67496 7.18436 4.55287 7.27438 4.46285C7.3644 4.37284 7.48649 4.32227 7.61379 4.32227C7.7411 4.32227 7.86319 4.37284 7.9532 4.46285C8.04322 4.55287 8.09379 4.67496 8.09379 4.80227V8.46275C8.09379 8.59005 8.04322 8.71214 7.9532 8.80216C7.86319 8.89217 7.7411 8.94275 7.61379 8.94275ZM16.4468 19.1562H11.7927C11.4775 19.1562 11.1654 19.0941 10.8742 18.9735C10.583 18.8529 10.3185 18.6761 10.0956 18.4532C9.87275 18.2304 9.69597 17.9658 9.57536 17.6746C9.45475 17.3834 9.39267 17.0714 9.39267 16.7562V8.92835C9.39267 8.80104 9.44324 8.67895 9.53326 8.58893C9.62328 8.49892 9.74537 8.44835 9.87267 8.44835H18.3668C18.4941 8.44835 18.6161 8.49892 18.7062 8.58893C18.7962 8.67895 18.8468 8.80104 18.8468 8.92835V16.7562C18.8468 17.0714 18.7847 17.3834 18.6641 17.6746C18.5435 17.9658 18.3667 18.2304 18.1438 18.4532C17.9209 18.6761 17.6564 18.8529 17.3652 18.9735C17.074 19.0941 16.7619 19.1562 16.4468 19.1562ZM18.6641 17.6746L10.3527 16.7562C10.3527 17.1381 10.7309 12.728 11.001 12.998C11.271 13.2681 17.5048 15.998 17.8868 15.998L16.4468 18.1962C16.8287 18.1962 13.7309 17.9447 14.001 17.6746C14.271 17.4046 17.8868 17.1381 17.8868 16.7562V9.40835L18.6641 17.6746Z" fill="#EC8F32"/>
<path d="M19.6315 16.198H18.3643C18.237 16.198 18.1149 16.1474 18.0249 16.0574C17.9349 15.9674 17.8843 15.8453 17.8843 15.718C17.8843 15.5907 17.9349 15.4686 18.0249 15.3785C18.1149 15.2885 18.237 15.238 18.3643 15.238H19.6315C19.7588 15.238 19.8809 15.1874 19.9709 15.0974C20.0609 15.0073 20.1115 14.8853 20.1115 14.758V12.8284C20.1115 12.7011 20.0609 12.579 19.9709 12.4889C19.8809 12.3989 19.7588 12.3484 19.6315 12.3484H18.3643C18.237 12.3484 18.1149 12.2978 18.0249 12.2078C17.9349 12.1178 17.8843 11.9957 17.8843 11.8684C17.8843 11.7411 17.9349 11.619 18.0249 11.5289C18.1149 11.4389 18.237 11.3884 18.3643 11.3884H19.6315C20.0134 11.3884 20.3797 11.5401 20.6497 11.8101C20.9198 12.0802 21.0715 12.4464 21.0715 12.8284V14.758C21.0715 15.1399 20.9198 15.5061 20.6497 15.7762C20.3797 16.0462 20.0134 16.198 19.6315 16.198ZM13.2437 7.92852C13.1164 7.92852 12.9943 7.87795 12.9043 7.78793C12.8142 7.69791 12.7637 7.57582 12.7637 7.44852V5.90196C12.7637 5.26544 13.0165 4.65499 13.4666 4.2049C13.9167 3.75481 14.5272 3.50196 15.1637 3.50196H16.9339C17.0612 3.50196 17.1833 3.45139 17.2733 3.36137C17.3633 3.27135 17.4139 3.14926 17.4139 3.02196C17.4144 2.4439 17.6443 1.88966 18.053 1.48091C18.4618 1.07216 19.016 0.842305 19.5941 0.841797H20.5915C20.7188 0.841797 20.8409 0.892368 20.9309 0.982386C21.0209 1.0724 21.0715 1.19449 21.0715 1.3218C21.0715 1.4491 21.0209 1.57119 20.9309 1.66121C20.8409 1.75123 20.7188 1.8018 20.5915 1.8018H19.5941C19.2705 1.80205 18.9603 1.93069 18.7316 2.15945C18.5028 2.38822 18.3742 2.69843 18.3739 3.02196C18.3739 3.40387 18.2222 3.77014 17.9521 4.04019C17.6821 4.31024 17.3158 4.46196 16.9339 4.46196H15.1637C14.7818 4.46196 14.4155 4.61367 14.1454 4.88372C13.8754 5.15378 13.7237 5.52005 13.7237 5.90196V7.44852C13.7237 7.57582 13.6731 7.69791 13.5831 7.78793C13.4931 7.87795 13.371 7.92852 13.2437 7.92852Z" fill="#EC8F32"/>
<path d="M17.2822 6.00322H15.0877C14.9604 6.00322 14.8383 5.95265 14.7483 5.86263C14.6582 5.77261 14.6077 5.65052 14.6077 5.52322C14.6077 5.39591 14.6582 5.27382 14.7483 5.18381C14.8383 5.09379 14.9604 5.04322 15.0877 5.04322H17.2822C17.7824 5.04271 18.2619 4.8438 18.6156 4.49014C18.9692 4.13649 19.1681 3.65697 19.1686 3.15682C19.1686 3.02951 19.2192 2.90742 19.3092 2.81741C19.3992 2.72739 19.5213 2.67682 19.6486 2.67682C19.7759 2.67682 19.898 2.72739 19.988 2.81741C20.0781 2.90742 20.1286 3.02951 20.1286 3.15682C20.1279 3.9115 19.8277 4.63505 19.2941 5.16869C18.7605 5.70232 18.0369 6.00246 17.2822 6.00322ZM7.61023 15.1463C5.83688 15.1463 4.13617 14.4418 2.88223 13.1879C1.62829 11.9339 0.923828 10.2332 0.923828 8.45986C0.923828 6.68651 1.62829 4.9858 2.88223 3.73186C4.13617 2.47792 5.83688 1.77346 7.61023 1.77346C9.31478 1.76914 10.9546 2.42608 12.1846 3.6061C12.2327 3.649 12.2717 3.70115 12.2992 3.75944C12.3267 3.81773 12.3422 3.88096 12.3448 3.94536C12.3473 4.00977 12.3369 4.07402 12.314 4.1343C12.2912 4.19458 12.2565 4.24964 12.2119 4.29621C12.1673 4.34277 12.1139 4.37988 12.0546 4.40533C11.9954 4.43078 11.9317 4.44404 11.8672 4.44432C11.8028 4.4446 11.7389 4.4319 11.6795 4.40697C11.62 4.38204 11.5662 4.34539 11.5213 4.29922C10.4694 3.29069 9.06744 2.72941 7.61023 2.73346C6.09149 2.74135 4.6381 3.35224 3.56977 4.43173C2.50144 5.51122 1.9057 6.97088 1.91359 8.48962C1.92148 10.0084 2.53237 11.4618 3.61186 12.5301C4.69134 13.5984 6.15101 14.1942 7.66975 14.1863C7.7391 14.1878 7.80845 14.1837 7.87711 14.1738C7.94014 14.1613 8.00504 14.1617 8.06794 14.1748C8.13084 14.1879 8.19047 14.2135 8.2433 14.25C8.29613 14.2866 8.34108 14.3334 8.37549 14.3877C8.40989 14.4419 8.43305 14.5025 8.44359 14.5659C8.45413 14.6293 8.45184 14.6942 8.43686 14.7566C8.42187 14.8191 8.39449 14.878 8.35635 14.9297C8.3182 14.9814 8.27006 15.0249 8.21479 15.0576C8.15951 15.0904 8.09822 15.1117 8.03455 15.1203C7.89409 15.1409 7.75215 15.1496 7.61023 15.1463ZM19.5325 19.1571H8.70751C8.58021 19.1571 8.45812 19.1066 8.3681 19.0165C8.27808 18.9265 8.22751 18.8044 8.22751 18.6771C8.22751 18.5498 8.27808 18.4277 8.3681 18.3377C8.45812 18.2477 8.58021 18.1971 8.70751 18.1971H19.5325C19.6598 18.1971 19.7819 18.2477 19.8719 18.3377C19.9619 18.4277 20.0125 18.5498 20.0125 18.6771C20.0125 18.8044 19.9619 18.9265 19.8719 19.0165C19.7819 19.1066 19.6598 19.1571 19.5325 19.1571Z" fill="#EC8F32"/>
</svg>
