<svg width="41" height="40" viewBox="0 0 41 40" fill="none" xmlns="http://www.w3.org/2000/svg">
<path fill-rule="evenodd" clip-rule="evenodd" d="M20.5 0C9.46875 0 0.5 8.96875 0.5 20C0.5 31.0312 9.46875 40 20.5 40C31.5312 40 40.5 31.0312 40.5 20C40.5 8.96875 31.5312 0 20.5 0Z" fill="#EC8F32"/>
<path fill-rule="evenodd" clip-rule="evenodd" d="M30.1719 13.2578C30.6562 13.7422 30.6562 14.5391 30.1719 15.0234L18.4531 26.7422C18.2109 26.9844 17.8906 27.1094 17.5703 27.1094C17.25 27.1094 16.9297 26.9844 16.6875 26.7422L10.8281 20.8828C10.3437 20.3984 10.3437 19.6016 10.8281 19.1172C11.3125 18.6328 12.1094 18.6328 12.5938 19.1172L17.5703 24.0938L28.4062 13.2578C28.8906 12.7656 29.6875 12.7656 30.1719 13.2578Z" fill="white"/>
</svg>
