<svg width="40" height="40" viewBox="0 0 40 40" fill="none" xmlns="http://www.w3.org/2000/svg">
<path fill-rule="evenodd" clip-rule="evenodd" d="M20 0C8.96875 0 0 8.96875 0 20C0 31.0312 8.96875 40 20 40C31.0312 40 40 31.0312 40 20C40 8.96875 31.0312 0 20 0Z" fill="#D1D3D4"/>
<path fill-rule="evenodd" clip-rule="evenodd" d="M29.6719 13.2578C30.1562 13.7422 30.1562 14.5391 29.6719 15.0234L17.9531 26.7422C17.7109 26.9844 17.3906 27.1094 17.0703 27.1094C16.75 27.1094 16.4297 26.9844 16.1875 26.7422L10.3281 20.8828C9.84375 20.3984 9.84375 19.6016 10.3281 19.1172C10.8125 18.6328 11.6094 18.6328 12.0938 19.1172L17.0703 24.0938L27.9062 13.2578C28.3906 12.7656 29.1875 12.7656 29.6719 13.2578Z" fill="white"/>
</svg>
